<?xml version="1.0" standalone="no"?>
<!DOCTYPE svg PUBLIC "-//W3C//DTD SVG 20010904//EN"
 "http://www.w3.org/TR/2001/REC-SVG-20010904/DTD/svg10.dtd">
<svg version="1.0" xmlns="http://www.w3.org/2000/svg"
 width="300.000000pt" height="48.000000pt" viewBox="0 0 300.000000 48.000000"
 preserveAspectRatio="xMidYMid meet">
<metadata>
Created by potrace 1.10, written by Peter Selinger 2001-2011
</metadata>
<g transform="translate(0.000000,48.000000) scale(0.100000,-0.100000)"
fill="#000000" stroke="none">
<path d="M195 381 c-12 -38 4 -51 59 -49 l51 1 -50 6 c-47 6 -50 8 -48 34 2
31 -3 35 -12 8z"/>
<path d="M88 368 c-27 -34 4 -56 32 -23 9 10 9 15 1 15 -6 0 -11 -4 -11 -10 0
-5 -8 -10 -17 -10 -14 0 -12 4 7 25 13 14 19 25 14 25 -5 0 -17 -10 -26 -22z"/>
<path d="M475 240 c0 -37 3 -63 7 -57 4 7 8 32 8 57 0 25 -4 50 -8 57 -4 6 -7
-20 -7 -57z"/>
<path d="M118 240 l4 -49 -39 -4 -38 -4 43 -1 42 -2 0 49 c0 28 -3 52 -7 54
-5 3 -6 -17 -5 -43z"/>
<path d="M352 250 c-2 -54 10 -70 55 -70 l33 0 -2 58 -2 57 -3 -53 c-4 -53 -4
-53 -36 -50 -30 3 -32 6 -38 53 l-6 50 -1 -45z"/>
<path d="M1342 253 c1 -37 1 -37 5 -6 3 26 9 33 31 36 24 4 24 4 -5 6 -32 1
-33 0 -31 -36z"/>
<path d="M1016 249 c-38 -45 -35 -92 8 -135 46 -46 92 -47 138 -3 l33 31 -33
-26 c-46 -36 -94 -35 -133 3 -21 22 -29 39 -29 66 0 27 8 44 29 66 16 16 26
29 21 29 -4 0 -20 -14 -34 -31z"/>
<path d="M2574 150 l1 -65 30 0 c26 0 30 4 31 28 1 25 1 25 -3 2 -3 -18 -11
-25 -28 -25 -22 0 -24 4 -28 63 l-3 62 0 -65z"/>
<path d="M285 201 c-6 -6 -35 -12 -65 -14 l-55 -3 56 -2 c40 -1 60 2 69 13 14
16 10 21 -5 6z"/>
<path d="M844 120 c1 -33 3 -35 36 -36 34 -2 34 -1 3 3 -27 4 -32 9 -36 36 -4
31 -4 31 -3 -3z"/>
<path d="M1894 120 c1 -32 4 -35 34 -38 31 -3 32 -2 31 30 -2 30 -2 31 -6 6
-3 -22 -10 -28 -28 -28 -19 0 -25 6 -28 33 -4 32 -4 32 -3 -3z"/>
<path d="M70 143 c0 -5 5 -15 11 -23 9 -12 10 -12 5 4 -5 16 -2 18 24 14 16
-3 30 -1 30 4 0 4 -16 8 -35 8 -19 0 -35 -3 -35 -7z"/>
<path d="M187 143 c-4 -3 -7 -11 -7 -17 0 -7 3 -7 8 1 4 6 28 13 52 16 l45 4
-46 1 c-25 1 -49 -1 -52 -5z"/>
<path d="M1401 116 c-1 -27 -3 -28 -38 -24 -21 3 -49 2 -63 -2 -16 -4 -3 -7
38 -8 66 -1 79 7 69 45 -3 11 -5 7 -6 -11z"/>
<path d="M2070 116 c0 -19 -6 -26 -27 -29 -26 -4 -26 -4 5 -6 29 -1 32 2 32
29 0 17 -2 30 -5 30 -3 0 -5 -11 -5 -24z"/>
<path d="M2190 116 c0 -19 -6 -26 -27 -29 -26 -4 -26 -4 5 -6 29 -1 32 2 32
29 0 17 -2 30 -5 30 -3 0 -5 -11 -5 -24z"/>
<path d="M2451 112 c-1 -32 0 -33 32 -30 27 3 32 7 33 31 1 25 1 25 -3 2 -6
-37 -50 -35 -56 3 -4 25 -4 24 -6 -6z"/>
<path d="M2731 118 c-1 -23 -6 -28 -25 -28 -15 0 -26 7 -29 18 -3 13 -4 12 -3
-3 1 -14 9 -21 29 -23 29 -4 42 13 34 45 -3 12 -5 8 -6 -9z"/>
<path d="M326 94 c-15 -40 1 -45 36 -11 13 12 17 17 8 11 -37 -26 -42 -27 -35
-5 7 24 0 29 -9 5z"/>
<path d="M1714 96 c25 -20 77 -20 102 0 18 15 18 15 -3 5 -28 -14 -68 -14 -96
0 -21 10 -21 10 -3 -5z"/>
<path d="M2271 89 c12 -7 144 -11 137 -3 -3 2 -37 5 -77 7 -39 2 -66 0 -60 -4z"/>
</g>
</svg>
